<svg width="40" height="40" viewBox="0 0 40 40" fill="none" xmlns="http://www.w3.org/2000/svg">
<path d="M14.9631 27.2465C15.69 27.2465 16.2792 26.6572 16.2792 25.9304C16.2792 25.2035 15.69 24.6143 14.9631 24.6143C14.2362 24.6143 13.647 25.2035 13.647 25.9304C13.647 26.6572 14.2362 27.2465 14.9631 27.2465Z" fill="black"/>
<path d="M24.6145 27.2465C25.3413 27.2465 25.9306 26.6572 25.9306 25.9304C25.9306 25.2035 25.3413 24.6143 24.6145 24.6143C23.8876 24.6143 23.2983 25.2035 23.2983 25.9304C23.2983 26.6572 23.8876 27.2465 24.6145 27.2465Z" fill="black"/>
<path d="M38.214 29.0724H34.1752C34.222 28.8578 34.2658 28.27 34.2658 28.1233C34.2658 27.4008 34.1748 26.6906 33.9989 25.9993L37.9252 24.0361L36.9868 22.1593L33.2173 24.0441C32.4789 22.8119 31.1955 21.2071 29.8734 20.2375C29.6056 20.0411 29.3291 19.8539 29.0449 19.6752C30.3674 16.1821 32.8754 9.46831 33.256 7.79806C33.9011 4.96784 32.1233 2.14057 29.2931 1.49552C26.4629 0.850465 23.6356 2.62822 22.9906 5.45844C22.6878 6.78686 22.0682 13.3217 21.7126 17.2518C21.0797 17.1888 20.4375 17.1561 19.789 17.1561C19.1404 17.1561 18.4981 17.1889 17.8653 17.2518C17.5097 13.3217 16.8902 6.78693 16.5874 5.45844C15.9423 2.62837 13.115 0.85076 10.2848 1.49552C7.45454 2.14049 5.67678 4.96777 6.32183 7.79806C6.70257 9.46823 9.21048 16.1821 10.5329 19.6752C10.2489 19.8539 9.97225 20.0411 9.70448 20.2375C8.38232 21.2071 7.33767 22.3342 6.59933 23.5666L2.82976 21.6818L1.83894 23.6633L5.76524 25.6265C5.40163 26.4905 5.31203 27.4007 5.31203 28.1231C5.31203 28.2699 5.31203 28.8681 5.43489 29.2074H1.36377V31.1939H5.87794C6.56603 33.0093 7.86703 34.6615 9.70455 36.0088C12.4144 37.996 15.9957 39.0904 19.789 39.0904C23.5822 39.0904 27.1636 37.996 29.8734 36.0088C31.7108 34.6614 33.012 33.0093 33.7 31.1939H38.2142L38.214 29.0724ZM25.0911 5.93356C25.5077 4.10537 27.3015 3.51496 28.716 3.83755C30.1311 4.16008 31.5484 5.34934 31.0706 7.4458C30.7614 8.80259 28.5453 14.7883 27.0676 18.701C26.309 18.3907 24.6689 17.7904 23.8491 17.5879C24.2858 12.7533 24.8542 6.97298 25.0911 5.93356ZM8.63419 7.21299C8.31167 5.79784 9.3549 4.22625 10.77 3.90365C10.9661 3.859 11.1621 3.83755 11.3552 3.83755C12.5559 3.83755 14.105 4.71464 14.3828 5.93356C14.6197 6.9729 15.2377 12.6588 15.6742 17.4933C14.8544 17.6958 13.2783 18.284 12.5196 18.5943C11.0421 14.6817 8.94345 8.56992 8.63419 7.21299ZM28.8007 34.3672C26.539 36.0258 24.4458 37.3144 19.789 37.3144C15.1322 37.3144 13.2596 36.1713 10.9979 34.5127C8.85897 32.9442 7.37491 31.0534 7.37491 28.1231C7.37491 25.4988 8.73079 23.5681 10.8697 21.9995C13.1314 20.3409 15.1807 19.1404 19.789 19.1404C24.3972 19.1404 26.3484 20.341 28.6102 21.9995C30.7491 23.568 32.4846 25.645 32.4846 28.1233C32.4846 30.761 30.9396 32.7987 28.8007 34.3672Z" fill="black"/>
<path fill-rule="evenodd" clip-rule="evenodd" d="M20.5683 38.2579V33.8591C21.1889 33.6243 21.8574 33.0114 22.0893 32.7793C22.4116 32.4566 23.1902 31.6395 23.1902 30.5729C23.1902 29.5062 22.5396 28.9819 21.821 28.6791C21.3451 28.4786 20.7388 28.3968 19.7285 28.3968C18.7182 28.3968 18.112 28.4786 17.636 28.6791C16.9175 28.9819 16.2247 29.5062 16.2247 30.5729C16.2247 31.6395 17.0668 32.5625 17.3891 32.8852C17.621 33.1172 18.2278 33.6243 18.8484 33.8591V38.2579H20.5683ZM18.684 31.6395C19.0935 32.0494 19.5194 32.2638 19.7285 32.2638C19.9377 32.2638 20.3636 32.0494 20.773 31.6395C21.1853 31.2269 21.401 30.7906 21.401 30.5729C21.401 30.3737 21.3631 30.3488 21.2314 30.2934C20.8843 30.1471 20.2074 30.1302 19.7285 30.1302C19.2496 30.1302 18.5728 30.1471 18.2256 30.2934C18.094 30.3489 18.056 30.3737 18.056 30.5729C18.056 30.7906 18.2718 31.2269 18.684 31.6395Z" fill="black"/>
</svg>
