<svg width="40" height="40" viewBox="0 0 40 40" fill="none" xmlns="http://www.w3.org/2000/svg">
<path d="M16.6644 16.2917C15.9164 16.2917 15.3076 16.9067 15.3076 17.666C15.3076 18.4252 15.9164 19.0408 16.6644 19.0408C17.4134 19.0408 18.022 18.4252 18.022 17.666C18.022 16.9067 17.4135 16.2917 16.6644 16.2917Z" fill="black"/>
<path d="M23.5358 16.281C22.7806 16.281 22.168 16.9011 22.168 17.6661C22.168 18.4311 22.7806 19.0511 23.5358 19.0511C24.2902 19.0511 24.9028 18.4311 24.9028 17.6661C24.9027 16.901 24.2901 16.281 23.5358 16.281Z" fill="black"/>
<path d="M33.3059 27.7116C34.1362 26.0511 34.5658 24.173 34.5696 22.1305L36.1909 21.754L35.7233 19.74L34.4242 20.0417C34.2689 18.9289 33.9914 17.8239 33.5997 16.7514C34.7548 13.4852 34.8802 9.70124 33.9441 6.02157L33.6842 5L32.6679 5.27968C32.2293 5.40045 28.4213 6.48573 26.6078 8.2392C26.3403 8.084 26.0687 7.93677 25.7926 7.79973C23.9738 6.89736 22.0603 6.43986 20.1051 6.43986C18.1499 6.43986 16.2364 6.89736 14.4177 7.79973C14.1415 7.93677 13.8699 8.08393 13.6023 8.23926C11.7889 6.48579 7.98102 5.40038 7.54237 5.27974L6.52608 5.00006L6.26619 6.02163C5.33001 9.70124 5.4555 13.4852 6.61053 16.7514C6.21888 17.824 5.9414 18.929 5.78601 20.0417L4.48734 19.7401L4.01953 21.754L5.64061 22.1304C5.64438 24.173 6.07398 26.0511 6.90434 27.7116L4.01953 28.3815L4.48721 30.3956L8.06666 29.5645C8.60761 30.2663 9.23614 30.9148 9.95026 31.5035C12.551 33.648 16.1575 34.8289 20.1051 34.8289C24.0528 34.8289 27.6591 33.6479 30.26 31.5035C30.9742 30.9147 31.6026 30.2663 32.1437 29.5644L35.7233 30.3956L36.1909 28.3815L33.3059 27.7116ZM8.03185 7.59835C9.21126 8.00269 10.8505 8.67131 11.8391 9.4433C11.1297 10.0067 10.4598 10.6414 9.83471 11.3457C9.13479 12.1343 8.51417 12.9866 7.97813 13.8835C7.6057 11.8827 7.62104 9.73737 8.03185 7.59835ZM18.7563 25.7795C18.2214 25.2449 17.9415 24.6837 17.9415 24.4057C17.9415 24.1574 17.9841 24.1396 18.1422 24.0729C18.5931 23.8832 19.4785 23.8614 20.1053 23.8614C20.732 23.8614 21.6174 23.8833 22.0682 24.0729C22.2264 24.1394 22.2689 24.1574 22.2689 24.4057C22.2689 24.6837 21.989 25.2448 21.4541 25.7795C20.9282 26.3052 20.3666 26.5888 20.1053 26.5888C19.8439 26.5888 19.2823 26.3051 18.7563 25.7795ZM31.2153 27.2262L27.231 26.301L26.7635 28.3151L29.8745 29.0375C29.587 29.3429 29.2774 29.6338 28.9445 29.9082C26.9372 31.5634 24.1949 32.549 21.139 32.7303V28.45C21.9507 28.1368 22.6118 27.5456 22.9157 27.2419C23.3428 26.8149 24.3365 25.6838 24.3365 24.4057C24.3365 23.36 23.8156 22.565 22.87 22.1672C22.2396 21.9019 21.4385 21.7937 20.1052 21.7937C18.7718 21.7937 17.9707 21.9019 17.3403 22.1672C16.3947 22.565 15.8738 23.36 15.8738 24.4057C15.8738 25.6838 16.8674 26.8149 17.2946 27.2419C17.5985 27.5456 18.2597 28.1368 19.0714 28.45V32.7303C16.0154 32.5491 13.273 31.5634 11.2656 29.9082C10.9327 29.6338 10.6232 29.343 10.3357 29.0375L13.447 28.315L12.9793 26.301L8.99479 27.2262C8.22293 25.8683 7.79094 24.315 7.71918 22.6132L12.9793 23.8346L13.447 21.8205L7.80816 20.5111C8.15871 17.7021 9.41761 14.9304 11.3811 12.7181C13.791 10.0028 16.8892 8.50744 20.1051 8.50744C23.3209 8.50744 26.4191 10.0028 28.8291 12.7181C30.7926 14.9304 32.0515 17.7022 32.402 20.5112L26.7635 21.8206L27.2311 23.8347L32.4908 22.6132C32.4192 24.3149 31.9872 25.8683 31.2153 27.2262ZM32.2321 13.8833C31.696 12.9865 31.0753 12.1342 30.3755 11.3456C29.7505 10.6412 29.0806 10.0067 28.3712 9.44337C29.3587 8.6732 30.9986 8.00407 32.1785 7.59897C32.5892 9.73775 32.6044 11.8829 32.2321 13.8833Z" fill="black"/>
</svg>
