<svg width="40" height="40" viewBox="0 0 40 40" fill="none" xmlns="http://www.w3.org/2000/svg">
<path d="M16.9222 16.397C16.1822 16.397 15.5801 17.0062 15.5801 17.7585C15.5801 18.5107 16.1823 19.1204 16.9222 19.1204C17.6631 19.1204 18.2652 18.5107 18.2652 17.7585C18.2652 17.0062 17.6631 16.397 16.9222 16.397Z" fill="black"/>
<path d="M23.7194 16.3865C22.9723 16.3865 22.3662 17.0008 22.3662 17.7586C22.3662 18.5164 22.9723 19.1307 23.7194 19.1307C24.4656 19.1307 25.0716 18.5164 25.0716 17.7586C25.0716 17.0008 24.4655 16.3865 23.7194 16.3865Z" fill="black"/>
<path d="M34.1071 7.60678C33.5079 5.34419 32.5008 3.86852 32.4583 3.80679L31.6872 2.68921L26.8257 8.34786C24.53 7.64429 22.098 7.54672 20.3256 7.54672C18.5531 7.54672 16.1212 7.64429 13.8255 8.34786L8.9641 2.68921L8.19307 3.80679C8.15049 3.86852 7.14342 5.34419 6.54422 7.60678C5.77352 10.5168 6.02304 13.4264 7.26321 16.0431C7.22383 16.4399 7.20301 16.8486 7.20301 17.2701C7.20301 20.2728 7.89704 22.1229 8.77571 24.4652C9.07181 25.2544 9.37785 26.0704 9.69543 27.026C10.5092 29.4751 11.4918 31.9988 13.1561 33.8661C14.9497 35.8784 17.2949 36.8567 20.3258 36.8567C23.3567 36.8567 25.7019 35.8785 27.4955 33.8661C29.1598 31.9988 30.1422 29.475 30.9561 27.026C31.2736 26.0704 31.5797 25.2544 31.8758 24.4652C32.7545 22.1229 33.4485 20.2728 33.4485 17.2701C33.4485 16.8486 33.4276 16.4399 33.3883 16.0431C34.6283 13.4263 34.8778 10.5168 34.1071 7.60678ZM8.58713 12.0322C8.4925 12.1793 8.40388 12.3308 8.31893 12.4849C8.0953 11.1073 8.17138 9.67925 8.54976 8.21359C8.75089 7.43448 9.01115 6.76174 9.25059 6.23581L11.7788 9.17848C10.4192 9.89333 9.34628 10.8522 8.58713 12.0322ZM20.3256 28.3429C20.0372 28.3429 19.4498 28.0472 18.8852 27.4821C18.3166 26.913 18.0191 26.3113 18.0191 26.0111C18.0191 25.7363 18.0715 25.7021 18.253 25.6256C18.7318 25.4238 19.6652 25.4005 20.3256 25.4005C20.9861 25.4005 21.9195 25.4238 22.3983 25.6256C22.5798 25.702 22.6321 25.7363 22.6321 26.0111C22.6321 26.3113 22.3346 26.913 21.7661 27.4821C21.2014 28.0472 20.6141 28.3429 20.3256 28.3429ZM29.9151 23.7297C29.6262 24.4996 29.2989 25.3722 28.9688 26.3657C27.2935 31.4073 25.529 34.3105 21.3725 34.7138V30.232C22.2283 29.9082 22.9277 29.2821 23.2474 28.962C23.692 28.517 24.726 27.3387 24.726 26.0111C24.726 24.9141 24.2023 24.1135 23.2114 23.696C22.555 23.4194 21.7189 23.3066 20.3256 23.3066C18.9324 23.3066 18.0963 23.4194 17.4399 23.696C16.449 24.1135 15.9252 24.9141 15.9252 26.0111C15.9252 27.3387 16.9593 28.517 17.4039 28.962C17.7236 29.282 18.4229 29.9082 19.2787 30.232V34.7138C15.1224 34.3104 13.3578 31.4073 11.6825 26.3657C11.3523 25.3723 11.025 24.4997 10.7362 23.7297C9.90057 21.5022 9.29683 19.8929 9.29683 17.27C9.29683 14.2082 10.4962 12.1328 12.9636 10.9249C14.7289 10.0607 17.1371 9.64055 20.3256 9.64055C23.5141 9.64055 25.9224 10.0606 27.6877 10.9249C30.1551 12.1328 31.3544 14.2082 31.3544 17.27C31.3544 19.8929 30.7507 21.5022 29.9151 23.7297ZM32.3281 12.4772C32.2443 12.3258 32.1572 12.1768 32.0641 12.0322C31.305 10.8522 30.232 9.89326 28.8724 9.17848L31.4012 6.23501C32.0072 7.56848 32.7469 9.85403 32.3281 12.4772Z" fill="black"/>
</svg>
