
<svg width="30" height="26" viewBox="0 0 30 26" fill="none" xmlns="http://www.w3.org/2000/svg">
<path fill-rule="evenodd" clip-rule="evenodd" d="M10.2096 11.6757C12.6011 11.6757 14.5462 9.0573 14.5462 5.83799C14.5462 2.61892 12.601 -0.000244141 10.2096 -0.000244141C7.81874 -0.000244141 5.87335 2.61885 5.87335 5.83799C5.87335 9.0573 7.81874 11.6757 10.2096 11.6757ZM23.0724 17.3541L23.0598 17.3368C22.9755 17.2217 22.8961 17.1132 22.8526 17.0194C21.883 14.9374 19.2249 12.4829 14.9186 12.4218L14.753 12.4209C10.5128 12.4209 7.87458 14.7455 6.81904 16.9218C6.78258 16.9963 6.70238 17.0929 6.61743 17.195C6.51689 17.3147 6.41743 17.4372 6.3324 17.5703C5.44071 18.9617 4.98607 20.5284 5.05315 21.9812C5.12344 23.5236 5.76725 24.7626 6.86286 25.4693C7.30552 25.7545 7.78318 25.8982 8.28432 25.8982C9.3172 25.8982 10.2629 25.315 11.3586 24.6392L11.3602 24.6382C12.0572 24.2073 12.7772 23.7627 13.577 23.4299C14.2054 23.2221 15.3524 23.2423 15.9714 23.4567C16.7479 23.8005 17.4303 24.2509 18.09 24.6864L18.09 24.6864L18.1009 24.6936C19.1176 25.3657 20.0775 25.9999 21.119 25.9999C21.5659 25.9999 21.9992 25.8816 22.4079 25.6487C24.6628 24.3636 25.0924 20.838 23.366 17.7899C23.2793 17.637 23.1761 17.4942 23.0724 17.3541ZM23.7667 5.83799C23.7667 9.0573 21.8211 11.6757 19.4307 11.6757C17.039 11.6757 15.0938 9.0573 15.0938 5.83799C15.0938 2.61885 17.039 -0.000244141 19.4307 -0.000244141C21.8211 -0.000244141 23.7667 2.61892 23.7667 5.83799ZM26.5525 8.67791C24.6359 8.67791 23.1358 10.6718 23.1358 13.2172C23.1358 15.7615 24.6368 17.7555 26.5525 17.7555C28.4682 17.7555 29.9701 15.7615 29.9701 13.2172C29.9701 10.6718 28.4691 8.67791 26.5525 8.67791ZM3.44703 8.67791C5.36288 8.67791 6.86385 10.6718 6.86385 13.2172C6.86385 15.7615 5.36296 17.7555 3.44703 17.7555C1.53111 17.7555 0.0299072 15.7615 0.0299072 13.2172C0.0299072 10.6718 1.53111 8.67791 3.44703 8.67791Z" fill="white"/>
</svg>
