<svg width="30" height="26" viewBox="0 0 30 26" fill="none" xmlns="http://www.w3.org/2000/svg">
<mask id="path-1-inside-1_2041_1415" fill="white">
<path fill-rule="evenodd" clip-rule="evenodd" d="M10.2096 11.6757C12.601 11.6757 14.5462 9.05734 14.5462 5.83811C14.5462 2.61911 12.601 0 10.2096 0C7.81882 0 5.87347 2.61903 5.87347 5.83811C5.87347 9.05734 7.81882 11.6757 10.2096 11.6757ZM23.0721 17.3542L23.0594 17.3369L23.0594 17.3369L23.0593 17.3368L23.0593 17.3368C22.975 17.2217 22.8957 17.1133 22.8523 17.0195C21.8826 14.9375 19.2247 12.4831 14.9185 12.422L14.7528 12.4211C10.5127 12.4211 7.87455 14.7456 6.81903 16.922C6.78258 16.9964 6.70239 17.093 6.61743 17.1952C6.5169 17.3149 6.41744 17.4373 6.33241 17.5704C5.44073 18.9618 4.98611 20.5284 5.05318 21.9812C5.12348 23.5236 5.76727 24.7625 6.86285 25.4692C7.30551 25.7544 7.78315 25.8982 8.28428 25.8982C9.31714 25.8982 10.2628 25.3149 11.3585 24.6391L11.3601 24.6382C12.0571 24.2073 12.7771 23.7626 13.5768 23.4299C14.2052 23.2221 15.3523 23.2423 15.9712 23.4566C16.7476 23.8005 17.43 24.2509 18.0898 24.6863L18.1007 24.6935C19.1173 25.3656 20.0772 25.9999 21.1187 25.9999C21.5656 25.9999 21.9988 25.8815 22.4076 25.6486C24.6624 24.3636 25.0919 20.8381 23.3656 17.79C23.279 17.6371 23.1758 17.4943 23.0721 17.3542ZM23.7666 5.83811C23.7666 9.05734 21.821 11.6757 19.4307 11.6757C17.039 11.6757 15.0939 9.05734 15.0939 5.83811C15.0939 2.61903 17.039 0 19.4307 0C21.821 0 23.7666 2.61911 23.7666 5.83811ZM26.5522 8.67816C24.6356 8.67816 23.1356 10.672 23.1356 13.2173C23.1356 15.7615 24.6365 17.7556 26.5522 17.7556C28.4678 17.7556 29.9697 15.7615 29.9697 13.2173C29.9697 10.6721 28.4687 8.67816 26.5522 8.67816ZM3.44732 8.67816C5.36313 8.67816 6.86406 10.6721 6.86406 13.2173C6.86406 15.7615 5.3632 17.7556 3.44732 17.7556C1.53144 17.7556 0.0302734 15.7615 0.0302734 13.2173C0.0302734 10.6721 1.53144 8.67816 3.44732 8.67816Z"/>
</mask>
<path d="M23.0594 17.3369L23.8663 16.7462L23.8209 16.6841L23.7665 16.6298L23.0594 17.3369ZM23.0721 17.3542L22.2652 17.9449L22.2682 17.9491L23.0721 17.3542ZM23.0594 17.3369L22.253 17.9283L22.2982 17.9899L22.3523 18.044L23.0594 17.3369ZM23.0593 17.3368L22.2455 17.9181L22.2529 17.9282L23.0593 17.3368ZM23.0593 17.3368L23.8731 16.7555L23.8661 16.746L23.0593 17.3368ZM22.8523 17.0195L23.7599 16.5996L23.7588 16.5973L22.8523 17.0195ZM14.9185 12.422L14.9326 11.4221L14.924 11.4221L14.9185 12.422ZM14.7528 12.4211L14.7583 11.4211H14.7528V12.4211ZM6.81903 16.922L7.71714 17.3618L7.7188 17.3583L6.81903 16.922ZM6.61743 17.1952L7.3832 17.8383L7.38628 17.8346L6.61743 17.1952ZM6.33241 17.5704L7.17435 18.11L7.17511 18.1088L6.33241 17.5704ZM5.05318 21.9812L6.05215 21.9357L6.05212 21.9351L5.05318 21.9812ZM6.86285 25.4692L6.32078 26.3096L6.32123 26.3099L6.86285 25.4692ZM11.3585 24.6391L11.8835 25.4903L11.8845 25.4896L11.3585 24.6391ZM11.3601 24.6382L10.8342 23.7876L10.834 23.7877L11.3601 24.6382ZM13.5768 23.4299L13.2629 22.4804L13.2273 22.4922L13.1927 22.5066L13.5768 23.4299ZM15.9712 23.4566L16.3761 22.5423L16.3379 22.5254L16.2985 22.5117L15.9712 23.4566ZM18.0898 24.6863L17.5389 25.5209L17.5389 25.5209L18.0898 24.6863ZM18.1007 24.6935L18.6522 23.8594L18.6515 23.8589L18.1007 24.6935ZM22.4076 25.6486L21.9124 24.7798L21.9124 24.7798L22.4076 25.6486ZM23.3656 17.79L24.2357 17.2972L24.2357 17.2972L23.3656 17.79ZM13.5462 5.83811C13.5462 7.25383 13.1171 8.49928 12.4719 9.36777C11.8264 10.2367 11.0149 10.6757 10.2096 10.6757V12.6757C11.7957 12.6757 13.1525 11.8055 14.0774 10.5604C15.0026 9.31496 15.5462 7.64162 15.5462 5.83811H13.5462ZM10.2096 1C11.0148 1 11.8263 1.43902 12.4719 2.30821C13.1171 3.17691 13.5462 4.42252 13.5462 5.83811H15.5462C15.5462 4.0347 15.0026 2.36126 14.0774 1.11565C13.1526 -0.12947 11.7958 -1 10.2096 -1V1ZM6.87347 5.83811C6.87347 4.4225 7.30256 3.17687 7.94778 2.30816C8.59339 1.43894 9.40476 1 10.2096 1V-1C8.62365 -1 7.26696 -0.129427 6.3422 1.11564C5.41706 2.36122 4.87347 4.03464 4.87347 5.83811H6.87347ZM10.2096 10.6757C9.40465 10.6757 8.59329 10.2368 7.94774 9.36779C7.30255 8.49926 6.87347 7.2538 6.87347 5.83811H4.87347C4.87347 7.64165 5.41706 9.31497 6.34224 10.5604C7.26706 11.8054 8.62375 12.6757 10.2096 12.6757V10.6757ZM22.2525 17.9276L22.2652 17.9449L23.8789 16.7635L23.8663 16.7462L22.2525 17.9276ZM22.3523 18.044L22.3523 18.044L23.7665 16.6298L23.7665 16.6298L22.3523 18.044ZM22.2529 17.9282L22.253 17.9283L23.8658 16.7455L23.8657 16.7454L22.2529 17.9282ZM22.2456 17.918L22.2456 17.918L23.8731 16.7556L23.873 16.7555L22.2456 17.918ZM21.9447 17.4394C22.0394 17.6441 22.1903 17.8426 22.2525 17.9276L23.8661 16.746C23.8213 16.6847 23.7928 16.6455 23.7702 16.6119C23.7598 16.5966 23.7543 16.5877 23.752 16.5838C23.7495 16.5796 23.7533 16.5854 23.7599 16.5996L21.9447 17.4394ZM14.9043 13.4219C18.8068 13.4773 21.1295 15.689 21.9458 17.4417L23.7588 16.5973C22.6358 14.186 19.6425 11.4889 14.9326 11.4221L14.9043 13.4219ZM14.7472 13.4211L14.9129 13.422L14.924 11.4221L14.7583 11.4211L14.7472 13.4211ZM7.7188 17.3583C8.61662 15.5072 10.9171 13.4211 14.7528 13.4211V11.4211C10.1083 11.4211 7.13249 13.9841 5.91927 16.4856L7.7188 17.3583ZM7.38628 17.8346C7.43539 17.7755 7.61496 17.5704 7.71713 17.3618L5.92094 16.4822C5.93654 16.4503 5.94889 16.4318 5.95008 16.43C5.95206 16.427 5.94993 16.4304 5.94104 16.4421C5.93242 16.4534 5.92069 16.4682 5.90445 16.4881C5.88808 16.5082 5.8703 16.5296 5.84858 16.5557L7.38628 17.8346ZM7.17511 18.1088C7.22263 18.0344 7.28593 17.9541 7.38319 17.8383L5.85168 16.552C5.74787 16.6756 5.61225 16.8402 5.48971 17.032L7.17511 18.1088ZM6.05212 21.9351C5.99587 20.7167 6.37845 19.3519 7.17435 18.11L5.49046 17.0309C4.50302 18.5717 3.97635 20.3401 4.05425 22.0273L6.05212 21.9351ZM7.40493 24.6289C6.63315 24.1311 6.11077 23.2219 6.05215 21.9357L4.05422 22.0267C4.13619 23.8254 4.9014 25.394 6.32078 26.3096L7.40493 24.6289ZM8.28428 24.8982C7.98444 24.8982 7.69354 24.8149 7.40447 24.6286L6.32123 26.3099C6.91747 26.694 7.58187 26.8982 8.28428 26.8982V24.8982ZM10.8336 23.788C9.66659 24.5077 8.97737 24.8982 8.28428 24.8982V26.8982C9.65691 26.8982 10.8591 26.1221 11.8835 25.4903L10.8336 23.788ZM10.834 23.7877L10.8325 23.7887L11.8845 25.4896L11.8861 25.4887L10.834 23.7877ZM13.1927 22.5066C12.3077 22.8748 11.5219 23.3625 10.8342 23.7876L11.8859 25.4888C12.5923 25.0521 13.2465 24.6504 13.961 24.3531L13.1927 22.5066ZM16.2985 22.5117C15.8497 22.3563 15.2907 22.2917 14.7908 22.2851C14.2925 22.2784 13.7248 22.3277 13.2629 22.4804L13.8908 24.3793C14.0573 24.3243 14.3773 24.2797 14.7643 24.2849C15.1498 24.29 15.4737 24.3426 15.644 24.4016L16.2985 22.5117ZM18.6406 23.8517C17.9902 23.4224 17.2406 22.9251 16.3761 22.5423L15.5663 24.371C16.2547 24.6758 16.8699 25.0793 17.5389 25.5209L18.6406 23.8517ZM18.6515 23.8589L18.6406 23.8517L17.5389 25.5209L17.5498 25.5281L18.6515 23.8589ZM21.1187 24.9999C20.4371 24.9999 19.7427 24.5803 18.6522 23.8594L17.5492 25.5277C18.4919 26.1509 19.7173 26.9999 21.1187 26.9999V24.9999ZM21.9124 24.7798C21.6458 24.9317 21.3822 24.9999 21.1187 24.9999V26.9999C21.7491 26.9999 22.3519 26.8313 22.9027 26.5174L21.9124 24.7798ZM22.4955 18.2829C23.2634 19.6387 23.532 21.0686 23.3869 22.2595C23.2416 23.4514 22.6999 24.331 21.9124 24.7798L22.9027 26.5174C24.3701 25.6812 25.1706 24.1556 25.3722 22.5015C25.5739 20.8463 25.1942 18.9895 24.2357 17.2972L22.4955 18.2829ZM22.2682 17.9491C22.3715 18.0886 22.4419 18.1882 22.4955 18.2829L24.2357 17.2972C24.1161 17.0859 23.98 16.9 23.8759 16.7593L22.2682 17.9491ZM19.4307 12.6757C21.0163 12.6757 22.373 11.8053 23.2977 10.5604C24.2229 9.31499 24.7666 7.64168 24.7666 5.83811H22.7666C22.7666 7.25377 22.3375 8.49924 21.6923 9.36779C21.0467 10.2369 20.2353 10.6757 19.4307 10.6757V12.6757ZM14.0939 5.83811C14.0939 7.64162 14.6374 9.31497 15.5627 10.5605C16.4876 11.8055 17.8445 12.6757 19.4307 12.6757V10.6757C18.6252 10.6757 17.8137 10.2367 17.1681 9.36776C16.5229 8.49927 16.0939 7.25383 16.0939 5.83811H14.0939ZM19.4307 -1C17.8444 -1 16.4875 -0.129536 15.5626 1.11561C14.6374 2.36122 14.0939 4.03467 14.0939 5.83811H16.0939C16.0939 4.42247 16.5229 3.17686 17.1682 2.30819C17.8138 1.43905 18.6253 1 19.4307 1V-1ZM24.7666 5.83811C24.7666 4.03465 24.2229 2.36123 23.2978 1.11567C22.3731 -0.12935 21.0165 -1 19.4307 -1V1C20.2352 1 21.0466 1.4389 21.6922 2.30819C22.3375 3.17693 22.7666 4.42257 22.7666 5.83811H24.7666ZM24.1356 13.2173C24.1356 10.9422 25.4329 9.67816 26.5522 9.67816V7.67816C23.8383 7.67816 22.1356 10.4018 22.1356 13.2173H24.1356ZM26.5522 16.7556C25.4336 16.7556 24.1356 15.491 24.1356 13.2173H22.1356C22.1356 16.032 23.8394 18.7556 26.5522 18.7556V16.7556ZM28.9697 13.2173C28.9697 15.4907 27.671 16.7556 26.5522 16.7556V18.7556C29.2647 18.7556 30.9697 16.0324 30.9697 13.2173H28.9697ZM26.5522 9.67816C27.6717 9.67816 28.9697 10.9426 28.9697 13.2173H30.9697C30.9697 10.4015 29.2658 7.67816 26.5522 7.67816V9.67816ZM7.86406 13.2173C7.86406 10.4017 6.16033 7.67816 3.44732 7.67816V9.67816C4.56593 9.67816 5.86406 10.9424 5.86406 13.2173H7.86406ZM3.44732 18.7556C6.16032 18.7556 7.86406 16.032 7.86406 13.2173H5.86406C5.86406 15.491 4.56608 16.7556 3.44732 16.7556V18.7556ZM-0.969727 13.2173C-0.969727 16.0322 0.734414 18.7556 3.44732 18.7556V16.7556C2.32846 16.7556 1.03027 15.4909 1.03027 13.2173H-0.969727ZM3.44732 7.67816C0.734324 7.67816 -0.969727 10.4015 -0.969727 13.2173H1.03027C1.03027 10.9426 2.32855 9.67816 3.44732 9.67816V7.67816Z" fill="white" mask="url(#path-1-inside-1_2041_1415)"/>
</svg>
