<svg width="169" height="40" viewBox="0 0 169 40" fill="none" xmlns="http://www.w3.org/2000/svg">
<path d="M68.1348 17.696C68.1348 19.056 67.7828 20.304 67.0788 21.44C66.3748 22.576 65.3508 23.504 64.0068 24.224C62.6628 24.944 61.0628 25.368 59.2068 25.496L58.1748 31.28C57.7748 33.504 56.6868 34.616 54.9108 34.616C53.9348 34.616 53.0308 34.328 52.1988 33.752C51.3828 33.176 50.7268 32.296 50.2308 31.112C49.7348 29.928 49.4868 28.472 49.4868 26.744C49.4868 23.496 50.0068 20.744 51.0468 18.488C52.1028 16.216 53.5108 14.52 55.2708 13.4C57.0468 12.264 58.9988 11.696 61.1268 11.696C62.6308 11.696 63.9028 11.96 64.9428 12.488C65.9988 13.016 66.7908 13.736 67.3188 14.648C67.8628 15.544 68.1348 16.56 68.1348 17.696ZM59.6388 23.024C62.9188 22.608 64.5588 20.904 64.5588 17.912C64.5588 16.856 64.2068 16 63.5028 15.344C62.8148 14.672 61.7428 14.336 60.2868 14.336C58.6388 14.336 57.1988 14.856 55.9668 15.896C54.7508 16.936 53.8068 18.384 53.1348 20.24C52.4788 22.08 52.1508 24.184 52.1508 26.552C52.1508 27.544 52.2468 28.424 52.4388 29.192C52.6468 29.96 52.9028 30.56 53.2068 30.992C53.5268 31.408 53.8308 31.616 54.1188 31.616C54.5188 31.616 54.8228 31.064 55.0308 29.96L55.8228 25.424C55.1988 25.328 54.9268 25.288 55.0068 25.304C54.5268 25.224 54.2148 25.08 54.0708 24.872C53.9268 24.648 53.8548 24.368 53.8548 24.032C53.8548 23.68 53.9508 23.4 54.1428 23.192C54.3508 22.984 54.6308 22.88 54.9828 22.88C55.1428 22.88 55.2628 22.888 55.3428 22.904C55.7268 22.968 56.0228 23.008 56.2308 23.024C56.4388 21.776 56.7348 20.104 57.1188 18.008C57.2148 17.464 57.4308 17.08 57.7668 16.856C58.1188 16.616 58.5268 16.496 58.9908 16.496C59.5188 16.496 59.8948 16.6 60.1188 16.808C60.3588 17 60.4788 17.312 60.4788 17.744C60.4788 18 60.4628 18.208 60.4308 18.368L59.6388 23.024ZM78.356 26.648C78.564 26.648 78.724 26.744 78.836 26.936C78.964 27.128 79.028 27.392 79.028 27.728C79.028 28.368 78.876 28.864 78.572 29.216C77.98 29.936 77.14 30.6 76.052 31.208C74.98 31.816 73.828 32.12 72.596 32.12C70.916 32.12 69.612 31.664 68.684 30.752C67.756 29.84 67.292 28.592 67.292 27.008C67.292 25.904 67.524 24.88 67.988 23.936C68.452 22.976 69.092 22.216 69.908 21.656C70.74 21.096 71.676 20.816 72.716 20.816C73.644 20.816 74.388 21.096 74.948 21.656C75.508 22.2 75.788 22.944 75.788 23.888C75.788 24.992 75.388 25.944 74.588 26.744C73.804 27.528 72.468 28.152 70.58 28.616C70.98 29.352 71.74 29.72 72.86 29.72C73.58 29.72 74.396 29.472 75.308 28.976C76.236 28.464 77.036 27.8 77.708 26.984C77.9 26.76 78.116 26.648 78.356 26.648ZM72.308 23.168C71.716 23.168 71.212 23.512 70.796 24.2C70.396 24.888 70.196 25.72 70.196 26.696V26.744C71.14 26.52 71.884 26.184 72.428 25.736C72.972 25.288 73.244 24.768 73.244 24.176C73.244 23.872 73.156 23.632 72.98 23.456C72.82 23.264 72.596 23.168 72.308 23.168ZM81.0339 23.096C81.0019 23.896 80.9859 24.52 80.9859 24.968C80.9859 26.12 81.0419 27.024 81.1539 27.68C81.2819 28.32 81.4819 28.784 81.7539 29.072C82.0419 29.344 82.4339 29.48 82.9299 29.48C83.1859 29.48 83.4899 29.4 83.8419 29.24C84.1939 29.08 84.5139 28.872 84.8019 28.616C84.9779 28.456 85.1539 28.376 85.3299 28.376C85.5219 28.376 85.6739 28.488 85.7859 28.712C85.9139 28.92 85.9779 29.176 85.9779 29.48C85.9779 29.784 85.9139 30.08 85.7859 30.368C85.6739 30.656 85.4979 30.896 85.2579 31.088C84.4259 31.776 83.4819 32.12 82.4259 32.12C80.9059 32.12 79.7939 31.488 79.0899 30.224C78.3859 28.944 78.0339 27.28 78.0339 25.232C78.0339 24.528 78.0579 23.816 78.1059 23.096H77.1699C76.6899 23.096 76.3619 23.008 76.1859 22.832C76.0259 22.656 75.9459 22.376 75.9459 21.992C75.9459 21.096 76.3059 20.648 77.0259 20.648H78.3939C78.6659 18.888 79.0819 17.28 79.6419 15.824C80.2019 14.368 80.8739 13.208 81.6579 12.344C82.4579 11.48 83.3139 11.048 84.2259 11.048C84.8979 11.048 85.4259 11.344 85.8099 11.936C86.1939 12.528 86.3859 13.272 86.3859 14.168C86.3859 16.648 85.3459 18.808 83.2659 20.648H85.9539C86.2099 20.648 86.3939 20.704 86.5059 20.816C86.6179 20.928 86.6739 21.136 86.6739 21.44C86.6739 22.544 85.7699 23.096 83.9619 23.096H81.0339ZM83.5779 13.352C83.3379 13.352 83.0659 13.656 82.7619 14.264C82.4739 14.856 82.1939 15.688 81.9219 16.76C81.6659 17.816 81.4499 18.992 81.2739 20.288C82.2179 19.472 82.9219 18.56 83.3859 17.552C83.8659 16.528 84.1059 15.6 84.1059 14.768C84.1059 13.824 83.9299 13.352 83.5779 13.352ZM100.036 32.192C97.9075 32.192 96.2035 31.792 94.9235 30.992C93.6435 30.176 93.0035 28.936 93.0035 27.272C93.0035 26.392 93.1555 25.72 93.4595 25.256C93.7635 24.792 94.2115 24.56 94.8035 24.56C95.2355 24.56 95.5875 24.672 95.8595 24.896C96.1315 25.12 96.2675 25.408 96.2675 25.76C96.2675 26.08 96.2435 26.36 96.1955 26.6C96.1955 26.664 96.1795 26.776 96.1475 26.936C96.1315 27.096 96.1235 27.264 96.1235 27.44C96.1235 28.16 96.4835 28.696 97.2035 29.048C97.9395 29.4 98.9635 29.576 100.276 29.576C101.636 29.576 102.7 29.336 103.468 28.856C104.236 28.36 104.62 27.672 104.62 26.792C104.62 26.248 104.444 25.784 104.092 25.4C103.74 25 103.3 24.672 102.772 24.416C102.244 24.144 101.5 23.816 100.54 23.432C99.3075 22.952 98.2995 22.496 97.5155 22.064C96.7475 21.632 96.0835 21.048 95.5235 20.312C94.9795 19.56 94.7075 18.632 94.7075 17.528C94.7075 16.376 95.0115 15.352 95.6195 14.456C96.2435 13.56 97.1315 12.864 98.2835 12.368C99.4515 11.872 100.82 11.624 102.388 11.624C103.556 11.624 104.628 11.8 105.604 12.152C106.58 12.488 107.356 13.008 107.932 13.712C108.524 14.416 108.82 15.28 108.82 16.304C108.82 17.312 108.668 18.072 108.364 18.584C108.06 19.096 107.612 19.352 107.02 19.352C106.604 19.352 106.252 19.224 105.964 18.968C105.692 18.712 105.556 18.408 105.556 18.056C105.556 17.752 105.58 17.472 105.628 17.216C105.676 16.736 105.7 16.432 105.7 16.304C105.7 15.632 105.372 15.12 104.716 14.768C104.06 14.416 103.244 14.24 102.268 14.24C100.892 14.24 99.8355 14.496 99.0995 15.008C98.3795 15.504 98.0195 16.208 98.0195 17.12C98.0195 17.728 98.2035 18.248 98.5715 18.68C98.9555 19.112 99.4275 19.472 99.9875 19.76C100.548 20.048 101.332 20.392 102.34 20.792C103.556 21.288 104.532 21.736 105.268 22.136C106.004 22.536 106.628 23.08 107.14 23.768C107.668 24.456 107.932 25.304 107.932 26.312C107.932 28.2 107.212 29.656 105.772 30.68C104.348 31.688 102.436 32.192 100.036 32.192ZM123.066 26.648C123.274 26.648 123.434 26.744 123.546 26.936C123.674 27.128 123.738 27.392 123.738 27.728C123.738 28.368 123.586 28.864 123.282 29.216C122.546 30.064 121.786 30.76 121.002 31.304C120.234 31.848 119.354 32.12 118.362 32.12C117.546 32.12 116.93 31.888 116.514 31.424C116.098 30.944 115.89 30.256 115.89 29.36C115.89 28.912 116.002 28.112 116.226 26.96C116.434 25.952 116.538 25.256 116.538 24.872C116.538 24.616 116.45 24.488 116.274 24.488C116.066 24.488 115.77 24.76 115.386 25.304C115.002 25.832 114.618 26.536 114.234 27.416C113.85 28.296 113.538 29.224 113.298 30.2C112.994 31.48 112.242 32.12 111.042 32.12C110.562 32.12 110.242 31.952 110.082 31.616C109.938 31.264 109.866 30.64 109.866 29.744C109.866 29.232 109.874 28.824 109.89 28.52L109.914 26.6C109.914 24.136 110.162 21.568 110.658 18.896C111.17 16.224 111.914 13.984 112.89 12.176C113.882 10.352 115.066 9.44 116.442 9.44C117.178 9.44 117.77 9.76 118.218 10.4C118.682 11.024 118.914 11.84 118.914 12.848C118.914 14.464 118.442 16.144 117.498 17.888C116.554 19.616 115.018 21.64 112.89 23.96C112.842 24.792 112.818 25.648 112.818 26.528C113.346 25.168 113.93 24.064 114.57 23.216C115.226 22.352 115.866 21.736 116.49 21.368C117.13 21 117.714 20.816 118.242 20.816C119.282 20.816 119.802 21.336 119.802 22.376C119.802 23 119.626 24.128 119.274 25.76C118.97 27.152 118.818 28.072 118.818 28.52C118.818 29.16 119.05 29.48 119.514 29.48C119.834 29.48 120.21 29.288 120.642 28.904C121.09 28.504 121.682 27.864 122.418 26.984C122.61 26.76 122.826 26.648 123.066 26.648ZM115.938 11.816C115.65 11.816 115.33 12.232 114.978 13.064C114.626 13.88 114.282 14.992 113.946 16.4C113.626 17.792 113.362 19.312 113.154 20.96C114.146 19.792 114.962 18.52 115.602 17.144C116.258 15.768 116.586 14.52 116.586 13.4C116.586 12.888 116.53 12.496 116.418 12.224C116.306 11.952 116.146 11.816 115.938 11.816ZM132.497 26.648C132.705 26.648 132.865 26.744 132.977 26.936C133.105 27.128 133.169 27.392 133.169 27.728C133.169 28.368 133.017 28.864 132.713 29.216C132.121 29.936 131.281 30.6 130.193 31.208C129.121 31.816 127.969 32.12 126.737 32.12C125.057 32.12 123.753 31.664 122.825 30.752C121.897 29.84 121.433 28.592 121.433 27.008C121.433 25.904 121.665 24.88 122.129 23.936C122.593 22.976 123.233 22.216 124.049 21.656C124.881 21.096 125.817 20.816 126.857 20.816C127.785 20.816 128.529 21.096 129.089 21.656C129.649 22.2 129.929 22.944 129.929 23.888C129.929 24.992 129.529 25.944 128.729 26.744C127.945 27.528 126.609 28.152 124.721 28.616C125.121 29.352 125.881 29.72 127.001 29.72C127.721 29.72 128.537 29.472 129.449 28.976C130.377 28.464 131.177 27.8 131.849 26.984C132.041 26.76 132.257 26.648 132.497 26.648ZM126.449 23.168C125.857 23.168 125.353 23.512 124.937 24.2C124.537 24.888 124.337 25.72 124.337 26.696V26.744C125.281 26.52 126.025 26.184 126.569 25.736C127.113 25.288 127.385 24.768 127.385 24.176C127.385 23.872 127.297 23.632 127.121 23.456C126.961 23.264 126.737 23.168 126.449 23.168ZM140.311 26.648C140.519 26.648 140.679 26.744 140.791 26.936C140.919 27.128 140.983 27.392 140.983 27.728C140.983 28.368 140.831 28.864 140.527 29.216C139.839 30.064 139.087 30.76 138.271 31.304C137.471 31.848 136.559 32.12 135.535 32.12C134.127 32.12 133.079 31.48 132.391 30.2C131.719 28.92 131.383 27.264 131.383 25.232C131.383 23.28 131.631 21.056 132.127 18.56C132.639 16.064 133.383 13.92 134.359 12.128C135.351 10.336 136.527 9.44 137.887 9.44C138.655 9.44 139.255 9.8 139.687 10.52C140.135 11.224 140.359 12.24 140.359 13.568C140.359 15.472 139.831 17.68 138.775 20.192C137.719 22.704 136.287 25.192 134.479 27.656C134.591 28.312 134.775 28.784 135.031 29.072C135.287 29.344 135.623 29.48 136.039 29.48C136.695 29.48 137.271 29.296 137.767 28.928C138.263 28.544 138.895 27.896 139.663 26.984C139.855 26.76 140.071 26.648 140.311 26.648ZM137.359 11.816C136.991 11.816 136.575 12.48 136.111 13.808C135.647 15.136 135.239 16.784 134.887 18.752C134.535 20.72 134.343 22.608 134.311 24.416C135.447 22.544 136.351 20.672 137.023 18.8C137.695 16.912 138.031 15.192 138.031 13.64C138.031 12.424 137.807 11.816 137.359 11.816ZM149.747 26.648C149.955 26.648 150.115 26.744 150.227 26.936C150.355 27.128 150.419 27.392 150.419 27.728C150.419 28.368 150.267 28.864 149.963 29.216C149.275 30.064 148.523 30.76 147.707 31.304C146.891 31.848 145.955 32.12 144.899 32.12C141.635 32.12 140.003 29.824 140.003 25.232C140.003 24.528 140.027 23.816 140.075 23.096H139.139C138.659 23.096 138.331 23.008 138.155 22.832C137.995 22.656 137.915 22.376 137.915 21.992C137.915 21.096 138.275 20.648 138.995 20.648H140.363C140.635 18.888 141.051 17.28 141.611 15.824C142.171 14.368 142.843 13.208 143.627 12.344C144.427 11.48 145.283 11.048 146.195 11.048C146.867 11.048 147.395 11.344 147.779 11.936C148.163 12.528 148.355 13.272 148.355 14.168C148.355 16.648 147.315 18.808 145.235 20.648H147.923C148.179 20.648 148.363 20.704 148.475 20.816C148.587 20.928 148.643 21.136 148.643 21.44C148.643 22.544 147.739 23.096 145.931 23.096H143.003C142.971 23.896 142.955 24.52 142.955 24.968C142.955 26.632 143.147 27.8 143.531 28.472C143.931 29.144 144.555 29.48 145.403 29.48C146.091 29.48 146.699 29.272 147.227 28.856C147.755 28.44 148.379 27.816 149.099 26.984C149.291 26.76 149.507 26.648 149.747 26.648ZM145.547 13.352C145.307 13.352 145.035 13.656 144.731 14.264C144.443 14.856 144.163 15.688 143.891 16.76C143.635 17.816 143.419 18.992 143.243 20.288C144.187 19.472 144.891 18.56 145.355 17.552C145.835 16.528 146.075 15.6 146.075 14.768C146.075 13.824 145.899 13.352 145.547 13.352ZM159.169 26.648C159.377 26.648 159.537 26.744 159.648 26.936C159.777 27.128 159.841 27.392 159.841 27.728C159.841 28.368 159.689 28.864 159.385 29.216C158.793 29.936 157.953 30.6 156.865 31.208C155.793 31.816 154.641 32.12 153.409 32.12C151.729 32.12 150.425 31.664 149.497 30.752C148.569 29.84 148.104 28.592 148.104 27.008C148.104 25.904 148.337 24.88 148.801 23.936C149.265 22.976 149.905 22.216 150.721 21.656C151.553 21.096 152.489 20.816 153.529 20.816C154.457 20.816 155.201 21.096 155.761 21.656C156.321 22.2 156.601 22.944 156.601 23.888C156.601 24.992 156.201 25.944 155.401 26.744C154.617 27.528 153.281 28.152 151.393 28.616C151.793 29.352 152.553 29.72 153.673 29.72C154.393 29.72 155.209 29.472 156.121 28.976C157.049 28.464 157.849 27.8 158.521 26.984C158.713 26.76 158.929 26.648 159.169 26.648ZM153.121 23.168C152.529 23.168 152.025 23.512 151.609 24.2C151.209 24.888 151.009 25.72 151.009 26.696V26.744C151.953 26.52 152.697 26.184 153.241 25.736C153.785 25.288 154.057 24.768 154.057 24.176C154.057 23.872 153.969 23.632 153.793 23.456C153.633 23.264 153.409 23.168 153.121 23.168ZM167.582 24.104C167.934 24.104 168.23 24.232 168.47 24.488C168.726 24.728 168.854 25.032 168.854 25.4C168.854 25.608 168.806 25.832 168.71 26.072C168.454 26.664 168.094 27.16 167.63 27.56C167.166 27.96 166.654 28.16 166.094 28.16C165.646 28.16 165.262 28 164.942 27.68C164.638 27.36 164.486 26.928 164.486 26.384C164.486 26.08 164.502 25.752 164.534 25.4C164.566 25.144 164.582 24.968 164.582 24.872C164.582 24.744 164.55 24.648 164.486 24.584C164.438 24.52 164.374 24.488 164.294 24.488C164.07 24.488 163.766 24.76 163.382 25.304C162.998 25.832 162.614 26.536 162.23 27.416C161.846 28.296 161.534 29.224 161.294 30.2C161.118 30.968 160.918 31.48 160.694 31.736C160.47 31.992 160.102 32.12 159.59 32.12C158.982 32.12 158.55 31.8 158.294 31.16C158.054 30.52 157.934 29.496 157.934 28.088C157.934 26.008 158.23 24.032 158.822 22.16C158.966 21.696 159.198 21.36 159.518 21.152C159.854 20.928 160.318 20.816 160.91 20.816C161.23 20.816 161.454 20.856 161.582 20.936C161.71 21.016 161.774 21.168 161.774 21.392C161.774 21.648 161.654 22.224 161.414 23.12C161.254 23.76 161.126 24.32 161.03 24.8C160.934 25.28 160.854 25.872 160.79 26.576C161.318 25.2 161.91 24.08 162.566 23.216C163.222 22.352 163.862 21.736 164.486 21.368C165.11 21 165.678 20.816 166.19 20.816C166.654 20.816 167.006 20.952 167.246 21.224C167.502 21.48 167.63 21.864 167.63 22.376C167.63 22.68 167.542 23.256 167.366 24.104H167.582Z" fill="#35AAFF"/>
<path d="M19.9961 2.67041C20.6057 2.67041 21.1825 2.86688 21.6202 3.22343L37.4573 16.131C38.1768 16.7172 38.1337 17.2279 38.0439 17.4802C37.9543 17.7319 37.6661 18.1541 36.7418 18.1541H34.182V35.1323C34.182 36.3438 33.1989 37.3295 31.9905 37.3295H8.00927C6.8009 37.3295 5.8178 36.3439 5.8178 35.1323V18.1541H3.25803C2.33367 18.1541 2.04538 17.7319 1.95586 17.4802C1.86612 17.2279 1.82295 16.7172 2.54252 16.1309L18.3795 3.22036C18.8147 2.86567 19.3888 2.67041 19.9961 2.67041Z" fill="#35AAFF"/>
<path fill-rule="evenodd" clip-rule="evenodd" d="M16.4946 21.1366C18.2445 21.1366 19.6678 19.2266 19.6678 16.8782C19.6678 14.53 18.2445 12.6194 16.4946 12.6194C14.7453 12.6194 13.3218 14.53 13.3218 16.8782C13.3218 19.2266 14.7453 21.1366 16.4946 21.1366ZM25.9064 25.279L25.8971 25.2665C25.8354 25.1825 25.7773 25.1033 25.7455 25.0349C25.036 23.5161 23.0912 21.7257 19.9402 21.6811L19.819 21.6805C16.7165 21.6805 14.7861 23.3761 14.0138 24.9637C13.9871 25.018 13.9284 25.0885 13.8662 25.163C13.7927 25.2503 13.7199 25.3397 13.6577 25.4368C13.0052 26.4518 12.6726 27.5945 12.7217 28.6543C12.7731 29.7795 13.2442 30.6832 14.0458 31.1988C14.3697 31.4068 14.7192 31.5117 15.0859 31.5117C15.8417 31.5117 16.5336 31.0862 17.3354 30.5932L17.3365 30.5926C17.8465 30.2782 18.3734 29.9539 18.9586 29.7111C19.4184 29.5595 20.2577 29.5743 20.7106 29.7306C21.2787 29.9814 21.778 30.31 22.2607 30.6277L22.2607 30.6277L22.2607 30.6277L22.2687 30.6329C23.0126 31.1232 23.715 31.5859 24.477 31.5859C24.8041 31.5859 25.1211 31.4996 25.4201 31.3296C27.07 30.3923 27.3843 27.8205 26.1212 25.597C26.0578 25.4854 25.9822 25.3812 25.9064 25.279ZM26.4145 16.8782C26.4145 19.2266 24.9909 21.1366 23.2419 21.1366C21.4918 21.1366 20.0686 19.2266 20.0686 16.8782C20.0686 14.53 21.4918 12.6194 23.2419 12.6194C24.9909 12.6194 26.4145 14.53 26.4145 16.8782ZM28.4529 18.9499C27.0504 18.9499 25.9529 20.4044 25.9529 22.2611C25.9529 24.1171 27.0511 25.5717 28.4529 25.5717C29.8545 25.5717 30.9535 24.1171 30.9535 22.2611C30.9535 20.4044 29.8552 18.9499 28.4529 18.9499ZM11.5467 18.9499C12.9485 18.9499 14.0468 20.4044 14.0468 22.2611C14.0468 24.1171 12.9486 25.5717 11.5467 25.5717C10.1448 25.5717 9.04639 24.1171 9.04639 22.2611C9.04639 20.4044 10.1448 18.9499 11.5467 18.9499Z" fill="white"/>
</svg>
