<svg width="23" height="20" viewBox="0 0 23 20" fill="none" xmlns="http://www.w3.org/2000/svg">
<path fill-rule="evenodd" clip-rule="evenodd" d="M7.97995 9.02694C9.73723 9.02694 11.1665 7.10296 11.1665 4.73743C11.1665 2.37206 9.73717 0.44751 7.97995 0.44751C6.22319 0.44751 4.79372 2.37201 4.79372 4.73743C4.79372 7.10296 6.22319 9.02694 7.97995 9.02694ZM17.4316 13.1999L17.4223 13.1873L17.4223 13.1872C17.3603 13.1026 17.302 13.0229 17.2701 12.954C16.5576 11.4241 14.6044 9.62057 11.4402 9.57571L11.3184 9.57503C8.20281 9.57503 6.26424 11.2831 5.48863 12.8823C5.46184 12.937 5.40291 13.008 5.34049 13.0831C5.26661 13.171 5.19353 13.261 5.13105 13.3588C4.47584 14.3812 4.14177 15.5324 4.19106 16.5999C4.24271 17.7333 4.71578 18.6436 5.52083 19.163C5.84609 19.3725 6.19707 19.4781 6.56531 19.4781C7.32426 19.4781 8.01916 19.0496 8.82428 18.553L8.82543 18.5523C9.33763 18.2356 9.8667 17.9089 10.4544 17.6644C10.9161 17.5117 11.7589 17.5266 12.2138 17.6841C12.7843 17.9367 13.2857 18.2677 13.7705 18.5876L13.7785 18.593C14.5255 19.0868 15.2309 19.5529 15.9962 19.5529C16.3246 19.5529 16.6429 19.4659 16.9433 19.2948C18.6002 18.3505 18.9158 15.7599 17.6473 13.5202C17.5836 13.4078 17.5077 13.3029 17.4316 13.1999ZM17.9421 4.73743C17.9421 7.10296 16.5124 9.02694 14.756 9.02694C12.9986 9.02694 11.5693 7.10296 11.5693 4.73743C11.5693 2.37201 12.9986 0.44751 14.756 0.44751C16.5124 0.44751 17.9421 2.37206 17.9421 4.73743ZM19.9888 6.82397C18.5805 6.82397 17.4782 8.28905 17.4782 10.1594C17.4782 12.0289 18.5811 13.4942 19.9888 13.4942C21.3964 13.4942 22.5 12.0289 22.5 10.1594C22.5 8.28911 21.3971 6.82397 19.9888 6.82397ZM3.01113 6.82397C4.41889 6.82397 5.5218 8.28911 5.5218 10.1594C5.5218 12.0289 4.41895 13.4942 3.01113 13.4942C1.60332 13.4942 0.500244 12.0289 0.500244 10.1594C0.500244 8.28911 1.60332 6.82397 3.01113 6.82397Z" fill="white"/>
</svg>
