<svg width="24" height="24" viewBox="0 0 24 24" fill="none" xmlns="http://www.w3.org/2000/svg">
<path d="M9.08753 6.52172C9.08753 6.98587 9.4638 7.36214 9.92796 7.36214H10.0167C10.4808 7.36214 10.8571 6.98587 10.8571 6.52172C10.8571 6.05756 10.4808 5.68129 10.0167 5.68129H9.92796C9.4638 5.68129 9.08753 6.05756 9.08753 6.52172Z" fill="#35AAFF"/>
<path d="M4.47903 14.8386V14.8386C4.47903 16.8451 6.10562 18.4717 8.11212 18.4717H19.4288M4.47903 14.8386L7.24913 12.1814C7.83203 11.6222 8.75217 11.6222 9.33506 12.1814V12.1814C9.91796 12.7405 10.8381 12.7405 11.421 12.1814L13.838 9.86281C15.3856 8.3783 17.8285 8.3783 19.376 9.86282L22.7647 13.1135M4.47903 14.8386V5.62136M22.7647 13.1135V15.1357C22.7647 16.9781 21.2712 18.4717 19.4288 18.4717V18.4717M22.7647 13.1135V6.28564C22.7647 4.07651 20.9739 2.28564 18.7647 2.28564H7.81475C5.97249 2.28564 4.47903 3.7791 4.47903 5.62136V5.62136M4.47903 5.62136V5.62136C2.63663 5.62136 1.14307 7.11493 1.14307 8.95733V18.1743V18.1743C1.14307 20.1808 2.76965 21.8074 4.77615 21.8074H16.0931C17.9353 21.8074 19.4288 20.314 19.4288 18.4717V18.4717M10.0167 7.36214H9.92796C9.4638 7.36214 9.08753 6.98587 9.08753 6.52172V6.52172C9.08753 6.05756 9.4638 5.68129 9.92796 5.68129H10.0167C10.4808 5.68129 10.8571 6.05756 10.8571 6.52172V6.52172C10.8571 6.98587 10.4808 7.36214 10.0167 7.36214Z" stroke="#35AAFF" stroke-width="1.8" stroke-linecap="round" stroke-linejoin="round"/>
</svg>
