<svg width="30" height="26" viewBox="0 0 30 26" fill="none" xmlns="http://www.w3.org/2000/svg">
<path d="M14.9999 4.96661C20.0533 4.96661 24.5599 7.80661 26.7599 12.2999C25.9733 13.9266 24.8666 15.3266 23.5466 16.4599L25.4266 18.3399C27.2799 16.6999 28.7466 14.6466 29.6666 12.2999C27.3599 6.44661 21.6666 2.29994 14.9999 2.29994C13.3066 2.29994 11.6799 2.56661 10.1466 3.05994L12.3466 5.25994C13.2133 5.08661 14.0933 4.96661 14.9999 4.96661ZM13.5733 6.48661L16.3333 9.24661C17.0933 9.57994 17.7066 10.1933 18.0399 10.9533L20.7999 13.7133C20.9066 13.2599 20.9866 12.7799 20.9866 12.2866C20.9999 8.97994 18.3066 6.29994 14.9999 6.29994C14.5066 6.29994 14.0399 6.36661 13.5733 6.48661ZM1.67992 2.12661L5.25325 5.69994C3.07992 7.40661 1.35992 9.67328 0.333252 12.2999C2.63992 18.1533 8.33325 22.2999 14.9999 22.2999C17.0266 22.2999 18.9733 21.9133 20.7599 21.2066L25.3199 25.7666L27.1999 23.8866L3.55992 0.233276L1.67992 2.12661ZM11.6799 12.1266L15.1599 15.6066C15.1066 15.6199 15.0533 15.6333 14.9999 15.6333C13.1599 15.6333 11.6666 14.1399 11.6666 12.2999C11.6666 12.2333 11.6799 12.1933 11.6799 12.1266ZM7.14659 7.59328L9.47992 9.92661C9.17325 10.6599 8.99992 11.4599 8.99992 12.2999C8.99992 15.6066 11.6933 18.2999 14.9999 18.2999C15.8399 18.2999 16.6399 18.1266 17.3599 17.8199L18.6666 19.1266C17.4933 19.4466 16.2666 19.6333 14.9999 19.6333C9.94659 19.6333 5.43992 16.7933 3.23992 12.2999C4.17325 10.3933 5.53325 8.81994 7.14659 7.59328Z" fill="#35AAFF"/>
</svg>
