<svg width="24" height="24" viewBox="0 0 24 24" fill="none" xmlns="http://www.w3.org/2000/svg">
<path d="M12 1.19995C7.50454 1.19995 3.84717 4.85732 3.84717 9.35277C3.84717 11.2111 5.15403 13.9646 7.73149 17.5367C9.61309 20.1444 11.522 22.2689 11.5411 22.2901L12 22.7994L12.4589 22.2901C12.478 22.269 14.3869 20.1445 16.2685 17.5367C18.8459 13.9645 20.1528 11.2111 20.1528 9.35277C20.1529 4.85732 16.4955 1.19995 12 1.19995ZM12 20.9435C9.71081 18.3063 5.08268 12.3542 5.08268 9.35277C5.08262 5.53855 8.18577 2.4354 12 2.4354C15.8143 2.4354 18.9174 5.53855 18.9174 9.35277C18.9174 12.3524 14.2892 18.3057 12 20.9435Z" fill="#E9AC5C"/>
<path d="M12 20.9435C9.71081 18.3063 5.08268 12.3542 5.08268 9.35277C5.08262 5.53855 8.18577 2.4354 12 2.4354C15.8143 2.4354 18.9174 5.53855 18.9174 9.35277C18.9174 12.3524 14.2892 18.3057 12 20.9435Z" fill="#E9AC5C"/>
<path fill-rule="evenodd" clip-rule="evenodd" d="M10.1832 8.45133C11.0901 8.45133 11.8277 7.45709 11.8277 6.23468C11.8277 5.01236 11.09 4.01782 10.1832 4.01782C9.27652 4.01782 8.5388 5.01233 8.5388 6.23468C8.5388 7.45709 9.27652 8.45133 10.1832 8.45133ZM15.061 10.6076L15.0562 10.6011C15.0242 10.5573 14.9941 10.5162 14.9776 10.4805C14.6099 9.68996 13.6019 8.75795 11.9689 8.73477L11.9061 8.73442C10.2982 8.73442 9.2977 9.61708 8.89742 10.4435C8.8836 10.4717 8.85318 10.5084 8.82097 10.5472C8.78284 10.5927 8.74513 10.6392 8.71288 10.6897C8.37474 11.2181 8.20233 11.8129 8.22777 12.3646C8.25442 12.9503 8.49857 13.4207 8.91404 13.6891C9.0819 13.7974 9.26304 13.8519 9.45308 13.8519C9.84476 13.8519 10.2034 13.6305 10.6189 13.3739L10.6195 13.3735C10.8838 13.2099 11.1569 13.041 11.4601 12.9147C11.6984 12.8358 12.1334 12.8435 12.3682 12.9248C12.6626 13.0554 12.9214 13.2264 13.1715 13.3918L13.1757 13.3945C13.5612 13.6497 13.9252 13.8906 14.3202 13.8906C14.4897 13.8906 14.654 13.8456 14.809 13.7572C15.6641 13.2692 15.827 11.9305 15.1723 10.7731C15.1394 10.715 15.1003 10.6608 15.061 10.6076ZM15.3243 6.23468C15.3243 7.45709 14.5865 8.45133 13.6801 8.45133C12.7731 8.45133 12.0354 7.45709 12.0354 6.23468C12.0354 5.01233 12.7731 4.01782 13.6801 4.01782C14.5865 4.01782 15.3243 5.01236 15.3243 6.23468ZM16.3807 7.31289C15.6539 7.31289 15.085 8.06998 15.085 9.03651C15.085 10.0026 15.6542 10.7598 16.3807 10.7598C17.1072 10.7598 17.6767 10.0026 17.6767 9.03651C17.6767 8.07001 17.1075 7.31289 16.3807 7.31289ZM7.61883 7.31289C8.34535 7.31289 8.91454 8.07001 8.91454 9.03651C8.91454 10.0026 8.34538 10.7598 7.61883 10.7598C6.89228 10.7598 6.323 10.0026 6.323 9.03651C6.323 8.07001 6.89228 7.31289 7.61883 7.31289Z" fill="white"/>
</svg>
