<svg width="24" height="24" viewBox="0 0 24 24" fill="none" xmlns="http://www.w3.org/2000/svg">
<path d="M14.5294 2.14551C15.1949 2.14551 15.8134 2.48861 16.1657 3.05323L17.4694 5.1429H19.4999C21.0385 5.1429 22.2857 6.3901 22.2857 7.92861V18.6429C22.2857 20.1814 21.0385 21.4286 19.4999 21.4286H4.49995C2.96144 21.4286 1.71423 20.1814 1.71423 18.6429V7.92861C1.71423 6.3901 2.96144 5.1429 4.49995 5.1429H6.70153L7.88659 3.1047C8.23186 2.51087 8.86692 2.14551 9.55383 2.14551H14.5294ZM14.5294 3.43122H9.55383C9.35757 3.43122 9.17401 3.5207 9.05309 3.67092L8.99809 3.75095L7.62712 6.10888C7.51203 6.30682 7.30035 6.42861 7.07138 6.42861H4.49995C3.67152 6.42861 2.99995 7.10018 2.99995 7.92861V18.6429C2.99995 19.4713 3.67152 20.1429 4.49995 20.1429H19.4999C20.3284 20.1429 20.9999 19.4713 20.9999 18.6429V7.92861C20.9999 7.10018 20.3284 6.42861 19.4999 6.42861H17.1128C16.891 6.42861 16.6848 6.31424 16.5674 6.12604L15.0749 3.7338C14.9574 3.54559 14.7513 3.43122 14.5294 3.43122ZM11.9999 8.14374C14.6036 8.14374 16.7142 10.2544 16.7142 12.858C16.7142 15.4617 14.6036 17.5723 11.9999 17.5723C9.39632 17.5723 7.28566 15.4617 7.28566 12.858C7.28566 10.2544 9.39632 8.14374 11.9999 8.14374ZM11.9999 9.42946C10.1064 9.42946 8.57138 10.9645 8.57138 12.858C8.57138 14.7516 10.1064 16.2866 11.9999 16.2866C13.8935 16.2866 15.4285 14.7516 15.4285 12.858C15.4285 10.9645 13.8935 9.42946 11.9999 9.42946Z" fill="white" stroke="white" stroke-width="0.6"/>
</svg>
