<svg width="40" height="40" viewBox="0 0 40 40" fill="none" xmlns="http://www.w3.org/2000/svg">
<mask id="path-1-inside-1_2643_1640" fill="white">
<path fill-rule="evenodd" clip-rule="evenodd" d="M15.2096 18.6757C17.601 18.6757 19.5462 16.0573 19.5462 12.8381C19.5462 9.61911 17.601 7 15.2096 7C12.8188 7 10.8735 9.61903 10.8735 12.8381C10.8735 16.0573 12.8188 18.6757 15.2096 18.6757ZM28.0721 24.3542L28.0594 24.3369L28.0594 24.3369L28.0593 24.3368L28.0593 24.3368C27.975 24.2217 27.8957 24.1133 27.8523 24.0195C26.8826 21.9375 24.2247 19.4831 19.9185 19.422L19.7528 19.4211C15.5127 19.4211 12.8746 21.7456 11.819 23.922C11.7826 23.9964 11.7024 24.093 11.6174 24.1952C11.5169 24.3149 11.4174 24.4373 11.3324 24.5704C10.4407 25.9618 9.98611 27.5284 10.0532 28.9812C10.1235 30.5236 10.7673 31.7625 11.8629 32.4692C12.3055 32.7544 12.7832 32.8982 13.2843 32.8982C14.3171 32.8982 15.2628 32.3149 16.3585 31.6391L16.3601 31.6382C17.0571 31.2073 17.7771 30.7626 18.5768 30.4299C19.2052 30.2221 20.3523 30.2423 20.9712 30.4566C21.7476 30.8005 22.43 31.2509 23.0898 31.6863L23.1007 31.6935C24.1173 32.3656 25.0772 32.9999 26.1187 32.9999C26.5656 32.9999 26.9988 32.8815 27.4076 32.6486C29.6624 31.3636 30.0919 27.8381 28.3656 24.79C28.279 24.6371 28.1758 24.4943 28.0721 24.3542ZM28.7666 12.8381C28.7666 16.0573 26.821 18.6757 24.4307 18.6757C22.039 18.6757 20.0939 16.0573 20.0939 12.8381C20.0939 9.61903 22.039 7 24.4307 7C26.821 7 28.7666 9.61911 28.7666 12.8381ZM31.5522 15.6782C29.6356 15.6782 28.1356 17.672 28.1356 20.2173C28.1356 22.7615 29.6365 24.7556 31.5522 24.7556C33.4678 24.7556 34.9697 22.7615 34.9697 20.2173C34.9697 17.6721 33.4687 15.6782 31.5522 15.6782ZM8.44732 15.6782C10.3631 15.6782 11.8641 17.6721 11.8641 20.2173C11.8641 22.7615 10.3632 24.7556 8.44732 24.7556C6.53144 24.7556 5.03027 22.7615 5.03027 20.2173C5.03027 17.6721 6.53144 15.6782 8.44732 15.6782Z"/>
</mask>
<path d="M28.0594 24.3369L28.8663 23.7462L28.8209 23.6841L28.7665 23.6298L28.0594 24.3369ZM28.0721 24.3542L27.2652 24.9449L27.2682 24.9491L28.0721 24.3542ZM28.0594 24.3369L27.253 24.9283L27.2982 24.9899L27.3523 25.044L28.0594 24.3369ZM28.0593 24.3368L27.2455 24.9181L27.2529 24.9282L28.0593 24.3368ZM28.0593 24.3368L28.8731 23.7555L28.8661 23.746L28.0593 24.3368ZM27.8523 24.0195L28.7599 23.5996L28.7588 23.5973L27.8523 24.0195ZM19.9185 19.422L19.9326 18.4221L19.924 18.4221L19.9185 19.422ZM19.7528 19.4211L19.7583 18.4211H19.7528V19.4211ZM11.819 23.922L12.7171 24.3618L12.7188 24.3583L11.819 23.922ZM11.6174 24.1952L12.3832 24.8383L12.3863 24.8346L11.6174 24.1952ZM11.3324 24.5704L12.1744 25.11L12.1751 25.1088L11.3324 24.5704ZM10.0532 28.9812L11.0521 28.9357L11.0521 28.9351L10.0532 28.9812ZM11.8629 32.4692L11.3208 33.3096L11.3212 33.3099L11.8629 32.4692ZM16.3585 31.6391L16.8835 32.4903L16.8845 32.4896L16.3585 31.6391ZM16.3601 31.6382L15.8342 30.7876L15.834 30.7877L16.3601 31.6382ZM18.5768 30.4299L18.2629 29.4804L18.2273 29.4922L18.1927 29.5066L18.5768 30.4299ZM20.9712 30.4566L21.3761 29.5423L21.3379 29.5254L21.2985 29.5117L20.9712 30.4566ZM23.0898 31.6863L22.5389 32.5209L22.5389 32.5209L23.0898 31.6863ZM23.1007 31.6935L23.6522 30.8594L23.6515 30.8589L23.1007 31.6935ZM27.4076 32.6486L26.9124 31.7798L26.9124 31.7798L27.4076 32.6486ZM28.3656 24.79L29.2357 24.2972L29.2357 24.2972L28.3656 24.79ZM18.5462 12.8381C18.5462 14.2538 18.1171 15.4993 17.4719 16.3678C16.8264 17.2367 16.0149 17.6757 15.2096 17.6757V19.6757C16.7957 19.6757 18.1525 18.8055 19.0774 17.5604C20.0026 16.315 20.5462 14.6416 20.5462 12.8381H18.5462ZM15.2096 8C16.0148 8 16.8263 8.43902 17.4719 9.30821C18.1171 10.1769 18.5462 11.4225 18.5462 12.8381H20.5462C20.5462 11.0347 20.0026 9.36126 19.0774 8.11565C18.1526 6.87053 16.7958 6 15.2096 6V8ZM11.8735 12.8381C11.8735 11.4225 12.3026 10.1769 12.9478 9.30816C13.5934 8.43894 14.4048 8 15.2096 8V6C13.6237 6 12.267 6.87057 11.3422 8.11564C10.4171 9.36122 9.87347 11.0346 9.87347 12.8381H11.8735ZM15.2096 17.6757C14.4047 17.6757 13.5933 17.2368 12.9477 16.3678C12.3026 15.4993 11.8735 14.2538 11.8735 12.8381H9.87347C9.87347 14.6417 10.4171 16.315 11.3422 17.5604C12.2671 18.8054 13.6238 19.6757 15.2096 19.6757V17.6757ZM27.2525 24.9276L27.2652 24.9449L28.8789 23.7635L28.8663 23.7462L27.2525 24.9276ZM27.3523 25.044L27.3523 25.044L28.7665 23.6298L28.7665 23.6298L27.3523 25.044ZM27.2529 24.9282L27.253 24.9283L28.8658 23.7455L28.8657 23.7454L27.2529 24.9282ZM27.2456 24.918L27.2456 24.918L28.8731 23.7556L28.873 23.7555L27.2456 24.918ZM26.9447 24.4394C27.0394 24.6441 27.1903 24.8426 27.2525 24.9276L28.8661 23.746C28.8213 23.6847 28.7928 23.6455 28.7702 23.6119C28.7598 23.5966 28.7543 23.5877 28.752 23.5838C28.7495 23.5796 28.7533 23.5854 28.7599 23.5996L26.9447 24.4394ZM19.9043 20.4219C23.8068 20.4773 26.1295 22.689 26.9458 24.4417L28.7588 23.5973C27.6358 21.186 24.6425 18.4889 19.9326 18.4221L19.9043 20.4219ZM19.7472 20.4211L19.9129 20.422L19.924 18.4221L19.7583 18.4211L19.7472 20.4211ZM12.7188 24.3583C13.6166 22.5072 15.9171 20.4211 19.7528 20.4211V18.4211C15.1083 18.4211 12.1325 20.9841 10.9193 23.4856L12.7188 24.3583ZM12.3863 24.8346C12.4354 24.7755 12.615 24.5704 12.7171 24.3618L10.9209 23.4822C10.9365 23.4503 10.9489 23.4318 10.9501 23.43C10.9521 23.427 10.9499 23.4304 10.941 23.4421C10.9324 23.4534 10.9207 23.4682 10.9045 23.4881C10.8881 23.5082 10.8703 23.5296 10.8486 23.5557L12.3863 24.8346ZM12.1751 25.1088C12.2226 25.0344 12.2859 24.9541 12.3832 24.8383L10.8517 23.552C10.7479 23.6756 10.6122 23.8402 10.4897 24.032L12.1751 25.1088ZM11.0521 28.9351C10.9959 27.7167 11.3784 26.3519 12.1744 25.11L10.4905 24.0309C9.50302 25.5717 8.97635 27.3401 9.05425 29.0273L11.0521 28.9351ZM12.4049 31.6289C11.6331 31.1311 11.1108 30.2219 11.0521 28.9357L9.05422 29.0267C9.13619 30.8254 9.9014 32.394 11.3208 33.3096L12.4049 31.6289ZM13.2843 31.8982C12.9844 31.8982 12.6935 31.8149 12.4045 31.6286L11.3212 33.3099C11.9175 33.694 12.5819 33.8982 13.2843 33.8982V31.8982ZM15.8336 30.788C14.6666 31.5077 13.9774 31.8982 13.2843 31.8982V33.8982C14.6569 33.8982 15.8591 33.1221 16.8835 32.4903L15.8336 30.788ZM15.834 30.7877L15.8325 30.7887L16.8845 32.4896L16.8861 32.4887L15.834 30.7877ZM18.1927 29.5066C17.3077 29.8748 16.5219 30.3625 15.8342 30.7876L16.8859 32.4888C17.5923 32.0521 18.2465 31.6504 18.961 31.3531L18.1927 29.5066ZM21.2985 29.5117C20.8497 29.3563 20.2907 29.2917 19.7908 29.2851C19.2925 29.2784 18.7248 29.3277 18.2629 29.4804L18.8908 31.3793C19.0573 31.3243 19.3773 31.2797 19.7643 31.2849C20.1498 31.29 20.4737 31.3426 20.644 31.4016L21.2985 29.5117ZM23.6406 30.8517C22.9902 30.4224 22.2406 29.9251 21.3761 29.5423L20.5663 31.371C21.2547 31.6758 21.8699 32.0793 22.5389 32.5209L23.6406 30.8517ZM23.6515 30.8589L23.6406 30.8517L22.5389 32.5209L22.5498 32.5281L23.6515 30.8589ZM26.1187 31.9999C25.4371 31.9999 24.7427 31.5803 23.6522 30.8594L22.5492 32.5277C23.4919 33.1509 24.7173 33.9999 26.1187 33.9999V31.9999ZM26.9124 31.7798C26.6458 31.9317 26.3822 31.9999 26.1187 31.9999V33.9999C26.7491 33.9999 27.3519 33.8313 27.9027 33.5174L26.9124 31.7798ZM27.4955 25.2829C28.2634 26.6387 28.532 28.0686 28.3869 29.2595C28.2416 30.4514 27.6999 31.331 26.9124 31.7798L27.9027 33.5174C29.3701 32.6812 30.1706 31.1556 30.3722 29.5015C30.5739 27.8463 30.1942 25.9895 29.2357 24.2972L27.4955 25.2829ZM27.2682 24.9491C27.3715 25.0886 27.4419 25.1882 27.4955 25.2829L29.2357 24.2972C29.1161 24.0859 28.98 23.9 28.8759 23.7593L27.2682 24.9491ZM24.4307 19.6757C26.0163 19.6757 27.373 18.8053 28.2977 17.5604C29.2229 16.315 29.7666 14.6417 29.7666 12.8381H27.7666C27.7666 14.2538 27.3375 15.4992 26.6923 16.3678C26.0467 17.2369 25.2353 17.6757 24.4307 17.6757V19.6757ZM19.0939 12.8381C19.0939 14.6416 19.6374 16.315 20.5627 17.5605C21.4876 18.8055 22.8445 19.6757 24.4307 19.6757V17.6757C23.6252 17.6757 22.8137 17.2367 22.1681 16.3678C21.5229 15.4993 21.0939 14.2538 21.0939 12.8381H19.0939ZM24.4307 6C22.8444 6 21.4875 6.87046 20.5626 8.11561C19.6374 9.36122 19.0939 11.0347 19.0939 12.8381H21.0939C21.0939 11.4225 21.5229 10.1769 22.1682 9.30819C22.8138 8.43905 23.6253 8 24.4307 8V6ZM29.7666 12.8381C29.7666 11.0347 29.2229 9.36123 28.2978 8.11567C27.3731 6.87065 26.0165 6 24.4307 6V8C25.2352 8 26.0466 8.4389 26.6922 9.30819C27.3375 10.1769 27.7666 11.4226 27.7666 12.8381H29.7666ZM29.1356 20.2173C29.1356 17.9422 30.4329 16.6782 31.5522 16.6782V14.6782C28.8383 14.6782 27.1356 17.4018 27.1356 20.2173H29.1356ZM31.5522 23.7556C30.4336 23.7556 29.1356 22.491 29.1356 20.2173H27.1356C27.1356 23.032 28.8394 25.7556 31.5522 25.7556V23.7556ZM33.9697 20.2173C33.9697 22.4907 32.671 23.7556 31.5522 23.7556V25.7556C34.2647 25.7556 35.9697 23.0324 35.9697 20.2173H33.9697ZM31.5522 16.6782C32.6717 16.6782 33.9697 17.9426 33.9697 20.2173H35.9697C35.9697 17.4015 34.2658 14.6782 31.5522 14.6782V16.6782ZM12.8641 20.2173C12.8641 17.4017 11.1603 14.6782 8.44732 14.6782V16.6782C9.56593 16.6782 10.8641 17.9424 10.8641 20.2173H12.8641ZM8.44732 25.7556C11.1603 25.7556 12.8641 23.032 12.8641 20.2173H10.8641C10.8641 22.491 9.56608 23.7556 8.44732 23.7556V25.7556ZM4.03027 20.2173C4.03027 23.0322 5.73441 25.7556 8.44732 25.7556V23.7556C7.32846 23.7556 6.03027 22.4909 6.03027 20.2173H4.03027ZM8.44732 14.6782C5.73432 14.6782 4.03027 17.4015 4.03027 20.2173H6.03027C6.03027 17.9426 7.32855 16.6782 8.44732 16.6782V14.6782Z" fill="white" mask="url(#path-1-inside-1_2643_1640)"/>
</svg>
