<svg width="40" height="40" viewBox="0 0 40 40" fill="none" xmlns="http://www.w3.org/2000/svg">
<path fill-rule="evenodd" clip-rule="evenodd" d="M15.2096 18.6757C17.6011 18.6757 19.5462 16.0573 19.5462 12.838C19.5462 9.61892 17.601 6.99976 15.2096 6.99976C12.8187 6.99976 10.8733 9.61885 10.8733 12.838C10.8733 16.0573 12.8187 18.6757 15.2096 18.6757ZM28.0724 24.3541L28.0598 24.3368C27.9755 24.2217 27.8961 24.1132 27.8526 24.0194C26.883 21.9374 24.2249 19.4829 19.9186 19.4218L19.753 19.4209C15.5128 19.4209 12.8746 21.7455 11.819 23.9218C11.7826 23.9963 11.7024 24.0929 11.6174 24.195C11.5169 24.3147 11.4174 24.4372 11.3324 24.5703C10.4407 25.9617 9.98607 27.5284 10.0531 28.9812C10.1234 30.5236 10.7673 31.7626 11.8629 32.4693C12.3055 32.7545 12.7832 32.8982 13.2843 32.8982C14.3172 32.8982 15.2629 32.315 16.3586 31.6392L16.3602 31.6382C17.0572 31.2073 17.7772 30.7627 18.577 30.4299C19.2054 30.2221 20.3524 30.2423 20.9714 30.4567C21.7479 30.8005 22.4303 31.2509 23.09 31.6864L23.09 31.6864L23.1009 31.6936C24.1176 32.3657 25.0775 32.9999 26.119 32.9999C26.5659 32.9999 26.9992 32.8816 27.4079 32.6487C29.6628 31.3636 30.0924 27.838 28.366 24.7899C28.2793 24.637 28.1761 24.4942 28.0724 24.3541ZM28.7667 12.838C28.7667 16.0573 26.8211 18.6757 24.4307 18.6757C22.039 18.6757 20.0938 16.0573 20.0938 12.838C20.0938 9.61885 22.039 6.99976 24.4307 6.99976C26.8211 6.99976 28.7667 9.61892 28.7667 12.838ZM31.5525 15.6779C29.6359 15.6779 28.1358 17.6718 28.1358 20.2172C28.1358 22.7615 29.6368 24.7555 31.5525 24.7555C33.4682 24.7555 34.9701 22.7615 34.9701 20.2172C34.9701 17.6718 33.4691 15.6779 31.5525 15.6779ZM8.44703 15.6779C10.3629 15.6779 11.8638 17.6718 11.8638 20.2172C11.8638 22.7615 10.363 24.7555 8.44703 24.7555C6.53111 24.7555 5.02991 22.7615 5.02991 20.2172C5.02991 17.6718 6.53111 15.6779 8.44703 15.6779Z" fill="white"/>
</svg>
